<?xml version="1.0" encoding="utf-8"?>
<!-- Generator: Adobe Illustrator 23.0.0, SVG Export Plug-In . SVG Version: 6.00 Build 0)  -->
<svg version="1.1" id="Layer_1" xmlns="http://www.w3.org/2000/svg" xmlns:xlink="http://www.w3.org/1999/xlink" x="0px" y="0px"
	 width="132.5px" height="28px" viewBox="0 0 132.5 28" style="enable-background:new 0 0 132.5 28;" xml:space="preserve">
<style type="text/css">
	.st0{fill:#675DA9;}
</style>
<g>
	<polygon class="st0" points="62,22.2 16.3,22.2 20,25.8 	"/>
	<path class="st0" d="M20.6,7.4V8c-0.8-0.5-1.6-0.9-2.7-0.9c-3.2,0-5.6,2.9-5.6,6.5s2.4,6.5,5.6,6.5c1,0,1.8-0.3,2.7-0.9v0.6h2.8
		V7.4H20.6z M17.9,17.2c-1.6,0-2.7-1.6-2.7-3.5c0-2,1.2-3.5,2.7-3.5c1.6,0,2.7,1.6,2.7,3.5C20.6,15.6,19.5,17.2,17.9,17.2"/>
	<path class="st0" d="M43.1,7.4v7.3c0,1.4-0.9,2.5-2.3,2.5s-2.3-1.2-2.3-2.5V7.4h-2.8v7.3c0,3,2,5.4,5,5.4c1.4,0,2.4-0.8,2.4-0.8
		v0.5h2.8V7.4H43.1z"/>
	<path class="st0" d="M69.3,19.8v-7.3c0-1.4,0.9-2.5,2.3-2.5s2.3,1.2,2.3,2.5v7.3h2.8v-7.3c0-3-2-5.4-5-5.4c-1.4,0-2.4,0.8-2.4,0.8
		V7.4h-2.8v12.4H69.3z"/>
	<path class="st0" d="M4.2,19.8V15h2.1l3.6,4.8h3.6L9.2,14c1.4-1,2.2-2.6,2.2-4.4c0-2.9-2.4-5.3-5.3-5.3H1.2v15.5H4.2z M4.2,7.3h1.9
		c1.3,0,2.4,1.1,2.4,2.4s-1.1,2.4-2.4,2.4H4.2V7.3z"/>
	<path class="st0" d="M53.5,16.9c-0.3,0.2-0.6,0.3-0.9,0.3c-0.5,0-1.3-0.4-1.3-1.5v-5.3h2.4v-3h-2.4v-3h-2.8v3.1H47v2.9h1.5v5.4
		c0,2.8,2.1,4.4,4.2,4.4c0.8,0,1.9-0.3,2.8-0.8L53.5,16.9z"/>
	<polygon class="st0" points="30.4,13.3 35.2,7.4 31.3,7.4 27.9,11.8 27.9,3.3 25,3.3 25,19.8 27.9,19.8 27.9,14.8 32,19.8 36,19.8 
			"/>
	<path class="st0" d="M60,7.1c-3.3,0-5.6,2.9-5.6,6.5c0,3.8,2.9,6.5,5.9,6.5c1.5,0,3.4-0.5,5-2.8l-2.5-1.4c-1.9,2.8-5.1,1.4-5.5-1.4
		h8.1C66.1,10.1,63.2,7.1,60,7.1 M62.5,12h-5.1C58,9.1,61.9,9,62.5,12"/>
	<path class="st0" d="M85.4,18.7L80.6,6.8c-0.1-0.1-0.1-0.3-0.2-0.5c0-0.2-0.1-0.4-0.1-0.5c0-0.5,0.2-0.9,0.5-1.3
		C81.2,4.2,81.6,4,82.1,4c0.4,0,0.7,0.1,1,0.3c0.2,0.2,0.5,0.6,0.7,1.2l3.2,8.7l3.1-8.6c0.2-0.6,0.4-1,0.7-1.3
		c0.3-0.2,0.6-0.4,1.1-0.4s1,0.1,1.3,0.4s0.5,0.7,0.5,1.2c0,0.2,0,0.4-0.1,0.6c0,0.2-0.1,0.4-0.2,0.6l-4.6,11.7
		c-0.2,0.5-0.5,0.9-0.7,1.1c-0.3,0.2-0.6,0.3-1.1,0.3c-0.4,0-0.7-0.1-1-0.3C85.8,19.5,85.6,19.2,85.4,18.7"/>
	<path class="st0" d="M97.9,17.7c0,0.8-0.1,1.4-0.4,1.8s-0.7,0.6-1.2,0.6c-0.6,0-1-0.2-1.2-0.6c-0.3-0.4-0.4-1-0.4-1.8v-6.6
		c0-0.8,0.1-1.4,0.4-1.8c0.3-0.4,0.7-0.6,1.2-0.6s1,0.2,1.2,0.6c0.3,0.4,0.4,1,0.4,1.8V17.7z"/>
	<path class="st0" d="M102.9,8.9c0.4-0.3,0.8-0.6,1.3-0.7c0.5-0.2,0.9-0.2,1.5-0.2c1.5,0,2.8,0.6,3.8,1.8s1.5,2.7,1.5,4.4
		s-0.5,3.1-1.6,4.3c-1.1,1.2-2.3,1.8-3.8,1.8c-0.6,0-1.1-0.1-1.6-0.3c-0.5-0.2-0.9-0.5-1.2-0.9c-0.2,0.4-0.5,0.7-0.7,0.8
		c-0.3,0.2-0.6,0.3-0.9,0.3c-0.6,0-1-0.2-1.3-0.6s-0.4-1-0.4-1.9v-11c0-0.9,0.1-1.5,0.4-1.9s0.7-0.6,1.3-0.6c0.6,0,1,0.2,1.3,0.6
		s0.4,1.1,0.4,1.9C102.9,6.7,102.9,8.9,102.9,8.9z M102.6,14c0,1,0.2,1.7,0.7,2.3c0.5,0.6,1.1,0.9,1.8,0.9s1.3-0.3,1.8-0.9
		s0.7-1.3,0.7-2.3s-0.2-1.7-0.7-2.3s-1.1-0.9-1.8-0.9s-1.3,0.3-1.8,0.9C102.8,12.3,102.6,13.1,102.6,14"/>
	<path class="st0" d="M114.8,15c0.1,0.6,0.5,1.2,1,1.5c0.5,0.4,1.1,0.5,1.8,0.5s1.4-0.2,2.2-0.6s1.3-0.6,1.5-0.6
		c0.4,0,0.7,0.1,1,0.4s0.4,0.6,0.4,1c0,0.7-0.5,1.4-1.6,2c-1,0.6-2.3,0.9-3.7,0.9c-1.7,0-3.1-0.6-4.3-1.7c-1.1-1.2-1.7-2.6-1.7-4.4
		s0.6-3.2,1.7-4.4c1.1-1.2,2.5-1.8,4.2-1.8c1.6,0,2.9,0.6,4,1.7s1.6,2.5,1.6,4.1c0,0.5-0.1,0.9-0.4,1.1c-0.2,0.2-0.7,0.3-1.4,0.3
		C121.1,15,114.8,15,114.8,15z M114.7,12.9h5.1c0-0.6-0.3-1.3-0.8-1.7s-1-0.6-1.7-0.6c-0.6,0-1.3,0.2-1.7,0.6
		C115.1,11.6,114.8,12.3,114.7,12.9"/>
	<path class="st0" d="M123.9,17.5v-7c0-0.9,0.1-1.5,0.4-1.9c0.3-0.4,0.7-0.6,1.3-0.6c0.4,0,0.7,0.1,0.9,0.3c0.3,0.2,0.5,0.5,0.7,0.8
		c0.4-0.4,0.7-0.7,1.1-0.9c0.4-0.2,0.8-0.3,1.2-0.3c0.5,0,0.9,0.2,1.2,0.5s0.5,0.7,0.5,1.2c0,0.7-0.6,1.3-1.9,1.7
		c-0.5,0.2-0.8,0.3-1,0.4c-0.4,0.2-0.7,0.4-0.9,0.7c-0.1,0.3-0.2,0.7-0.2,1.4v3.6c0,0.9-0.1,1.5-0.4,1.9c-0.3,0.4-0.7,0.6-1.3,0.6
		s-1-0.2-1.3-0.6C124.1,19,123.9,18.4,123.9,17.5"/>
	<path class="st0" d="M94.6,5.9c0-0.5,0.2-0.9,0.5-1.3c0.4-0.4,0.8-0.5,1.3-0.5s0.9,0.2,1.3,0.5c0.4,0.4,0.5,0.8,0.5,1.3
		S98,6.8,97.7,7.2c-0.3,0.3-0.8,0.5-1.3,0.5s-0.9-0.2-1.3-0.5C94.8,6.8,94.6,6.4,94.6,5.9"/>
</g>
</svg>
